<svg xmlns="http://www.w3.org/2000/svg" viewBox="0 0 1100 880" font-family="monospace" font-size="12">
  <defs>
    <marker id="arrow" markerWidth="8" markerHeight="6" refX="8" refY="3" orient="auto">
      <path d="M0,0 L8,3 L0,6 Z" fill="#333"/>
    </marker>
    <marker id="arrow-red" markerWidth="8" markerHeight="6" refX="8" refY="3" orient="auto">
      <path d="M0,0 L8,3 L0,6 Z" fill="#c0392b"/>
    </marker>
    <marker id="arrow-blue" markerWidth="8" markerHeight="6" refX="8" refY="3" orient="auto">
      <path d="M0,0 L8,3 L0,6 Z" fill="#2980b9"/>
    </marker>
    <marker id="arrow-green" markerWidth="8" markerHeight="6" refX="8" refY="3" orient="auto">
      <path d="M0,0 L8,3 L0,6 Z" fill="#27ae60"/>
    </marker>
    <marker id="arrow-orange" markerWidth="8" markerHeight="6" refX="8" refY="3" orient="auto">
      <path d="M0,0 L8,3 L0,6 Z" fill="#e67e22"/>
    </marker>
    <marker id="arrow-teal" markerWidth="8" markerHeight="6" refX="8" refY="3" orient="auto">
      <path d="M0,0 L8,3 L0,6 Z" fill="#16a085"/>
    </marker>
    <marker id="arrow-purple" markerWidth="8" markerHeight="6" refX="8" refY="3" orient="auto">
      <path d="M0,0 L8,3 L0,6 Z" fill="#8e44ad"/>
    </marker>
  </defs>

  <!-- Background -->
  <rect width="1100" height="880" fill="#f8f9fa" rx="8"/>

  <!-- Title -->
  <text x="550" y="35" text-anchor="middle" font-size="20" font-weight="bold" fill="#2c3e50">Billy Bass - Circuit Pinout Diagram</text>
  <text x="550" y="55" text-anchor="middle" font-size="11" fill="#7f8c8d">Arduino UNO R4 WiFi + Motor Shield v2 + BT Audio Adapter + ADC Conditioning Circuit</text>

  <!-- ==================== BT 5.0 ADAPTER ==================== -->
  <g transform="translate(30, 80)">
    <rect x="0" y="0" width="175" height="105" rx="6" fill="#16a085" stroke="#0e6655" stroke-width="2"/>
    <text x="87" y="22" text-anchor="middle" font-size="13" font-weight="bold" fill="white">BT 5.0 ADAPTER</text>
    <text x="87" y="38" text-anchor="middle" font-size="10" fill="#a3e4d7">A2DP Audio Receiver</text>
    <text x="87" y="52" text-anchor="middle" font-size="9" fill="#a3e4d7">(external device)</text>
    <rect x="15" y="62" width="145" height="16" rx="3" fill="#0e6655"/>
    <text x="87" y="74" text-anchor="middle" font-size="9" fill="white" font-weight="bold">3.5mm Audio Output</text>
    <rect x="15" y="82" width="145" height="16" rx="3" fill="#2c3e50"/>
    <text x="87" y="94" text-anchor="middle" font-size="9" fill="white">USB Power (separate)</text>
  </g>

  <!-- ==================== Y-SPLITTER ==================== -->
  <g transform="translate(85, 225)">
    <rect x="0" y="0" width="70" height="40" rx="20" fill="#f39c12" stroke="#d68910" stroke-width="2"/>
    <text x="35" y="16" text-anchor="middle" font-size="8" font-weight="bold" fill="white">3.5mm</text>
    <text x="35" y="28" text-anchor="middle" font-size="8" font-weight="bold" fill="white">Y-SPLIT</text>
  </g>

  <!-- ==================== BILLY BASS EXISTING AMP + SPEAKER ==================== -->
  <g transform="translate(15, 310)">
    <rect x="0" y="0" width="195" height="80" rx="6" fill="#8e44ad" stroke="#6c3483" stroke-width="2"/>
    <text x="97" y="18" text-anchor="middle" font-size="12" font-weight="bold" fill="white">EXISTING AMP</text>
    <text x="97" y="34" text-anchor="middle" font-size="12" font-weight="bold" fill="white">+ SPEAKER</text>
    <text x="97" y="52" text-anchor="middle" font-size="10" fill="#d7bde2">Built-in Billy Bass hardware</text>
    <text x="97" y="66" text-anchor="middle" font-size="10" fill="#d7bde2">3.5mm headphone jack input</text>
    <text x="97" y="78" text-anchor="middle" font-size="8" fill="#bb8fce">(no new hardware needed)</text>
  </g>

  <!-- ==================== ADC CONDITIONING CIRCUIT ==================== -->
  <g transform="translate(15, 435)">
    <!-- Box -->
    <rect x="0" y="0" width="260" height="215" rx="6" fill="white" stroke="#d68910" stroke-width="2"/>
    <!-- Header bar -->
    <rect x="0" y="0" width="260" height="28" rx="6" fill="#e67e22"/>
    <rect x="0" y="14" width="260" height="14" fill="#e67e22"/>
    <text x="130" y="19" text-anchor="middle" font-size="11" font-weight="bold" fill="white">ADC CONDITIONING CIRCUIT</text>

    <!-- Subheader -->
    <text x="130" y="44" text-anchor="middle" font-size="9" fill="#7f8c8d">Biases audio signal to 2.5V for ADC input</text>

    <!-- C1 -->
    <rect x="12" y="54" width="110" height="18" rx="3" fill="#f5b041"/>
    <text x="67" y="67" text-anchor="middle" font-size="9" fill="white" font-weight="bold">C1: 1uF film</text>
    <text x="132" y="67" font-size="9" fill="#666">AC coupling</text>

    <!-- R1 -->
    <rect x="12" y="76" width="110" height="18" rx="3" fill="#eb984e"/>
    <text x="67" y="89" text-anchor="middle" font-size="9" fill="white" font-weight="bold">R1: 100k</text>
    <text x="132" y="89" font-size="9" fill="#c0392b" font-weight="bold">--> 5V</text>
    <text x="185" y="89" font-size="8" fill="#999">(bias hi)</text>

    <!-- R2 -->
    <rect x="12" y="98" width="110" height="18" rx="3" fill="#eb984e"/>
    <text x="67" y="111" text-anchor="middle" font-size="9" fill="white" font-weight="bold">R2: 100k</text>
    <text x="132" y="111" font-size="9" fill="#2c3e50" font-weight="bold">--> GND</text>
    <text x="185" y="111" font-size="8" fill="#999">(bias lo)</text>

    <!-- Bias result -->
    <text x="130" y="128" text-anchor="middle" font-size="9" fill="#27ae60" font-weight="bold">= 2.5V DC bias point</text>

    <!-- D1 -->
    <rect x="12" y="136" width="110" height="18" rx="3" fill="#e74c3c"/>
    <text x="67" y="149" text-anchor="middle" font-size="9" fill="white" font-weight="bold">D1: BAT43</text>
    <text x="132" y="149" font-size="9" fill="#666">clamp --> 5V</text>

    <!-- D2 -->
    <rect x="12" y="158" width="110" height="18" rx="3" fill="#e74c3c"/>
    <text x="67" y="171" text-anchor="middle" font-size="9" fill="white" font-weight="bold">D2: BAT43</text>
    <text x="132" y="171" font-size="9" fill="#666">clamp --> GND</text>

    <!-- R3 -->
    <rect x="12" y="180" width="110" height="18" rx="3" fill="#eb984e"/>
    <text x="67" y="193" text-anchor="middle" font-size="9" fill="white" font-weight="bold">R3: 3.3k</text>
    <text x="132" y="193" font-size="9" fill="#e67e22" font-weight="bold">--> A0</text>

    <!-- C2 -->
    <rect x="12" y="195" width="110" height="18" rx="3" fill="#f5b041"/>
    <text x="67" y="208" text-anchor="middle" font-size="9" fill="white" font-weight="bold">C2: 10nF</text>
    <text x="132" y="208" font-size="9" fill="#666">LPF ~4.8kHz</text>
  </g>

  <!-- ==================== ARDUINO UNO R4 WIFI ==================== -->
  <g transform="translate(340, 140)">
    <!-- Board body -->
    <rect x="0" y="0" width="220" height="340" rx="6" fill="#2980b9" stroke="#1a5276" stroke-width="2"/>
    <text x="110" y="22" text-anchor="middle" font-size="13" font-weight="bold" fill="white">ARDUINO UNO</text>
    <text x="110" y="38" text-anchor="middle" font-size="13" font-weight="bold" fill="white">R4 WiFi</text>

    <!-- USB-C connector -->
    <rect x="80" y="-15" width="60" height="20" rx="3" fill="#7f8c8d" stroke="#5d6d7e" stroke-width="1.5"/>
    <text x="110" y="-1" text-anchor="middle" font-size="9" fill="white">USB-C</text>

    <!-- Power barrel jack -->
    <rect x="-15" y="10" width="20" height="30" rx="3" fill="#2c3e50" stroke="#1a252f" stroke-width="1.5"/>
    <text x="-5" y="30" text-anchor="middle" font-size="7" fill="white">DC</text>

    <!-- Chip label -->
    <rect x="55" y="48" width="110" height="22" rx="3" fill="#1a5276"/>
    <text x="110" y="63" text-anchor="middle" font-size="9" fill="#85c1e9">Renesas RA4M1</text>

    <!-- WiFi/BLE label -->
    <rect x="55" y="74" width="110" height="22" rx="3" fill="#1a5276"/>
    <text x="110" y="83" text-anchor="middle" font-size="8" fill="#85c1e9">ESP32-S3 (WiFi/BLE)</text>
    <text x="110" y="93" text-anchor="middle" font-size="7" fill="#5dade2">BLE only - no A2DP</text>

    <!-- Digital pins (right side) -->
    <text x="200" y="108" text-anchor="end" font-size="9" fill="#d5f4e6">DIGITAL PINS</text>
    <g font-size="10" fill="white">
      <rect x="185" y="114" width="30" height="14" rx="2" fill="#1a5276"/>
      <text x="200" y="125" text-anchor="middle">D13</text>
      <rect x="185" y="130" width="30" height="14" rx="2" fill="#1a5276"/>
      <text x="200" y="141" text-anchor="middle">D12</text>
      <rect x="185" y="146" width="30" height="14" rx="2" fill="#1a5276"/>
      <text x="200" y="157" text-anchor="middle">D11</text>
      <rect x="185" y="162" width="30" height="14" rx="2" fill="#1a5276"/>
      <text x="200" y="173" text-anchor="middle">D10</text>
      <rect x="185" y="178" width="30" height="14" rx="2" fill="#1a5276"/>
      <text x="200" y="189" text-anchor="middle">D9</text>
      <rect x="185" y="194" width="30" height="14" rx="2" fill="#1a5276"/>
      <text x="200" y="205" text-anchor="middle">D8</text>
      <rect x="185" y="214" width="30" height="14" rx="2" fill="#1a5276"/>
      <text x="200" y="225" text-anchor="middle">D7</text>
      <rect x="185" y="230" width="30" height="14" rx="2" fill="#1a5276"/>
      <text x="200" y="241" text-anchor="middle">D6</text>
      <rect x="185" y="246" width="30" height="14" rx="2" fill="#1a5276"/>
      <text x="200" y="257" text-anchor="middle">D5</text>
      <rect x="185" y="262" width="30" height="14" rx="2" fill="#1a5276"/>
      <text x="200" y="273" text-anchor="middle">D4</text>
      <rect x="185" y="278" width="30" height="14" rx="2" fill="#1a5276"/>
      <text x="200" y="289" text-anchor="middle">D3</text>
      <rect x="185" y="294" width="30" height="14" rx="2" fill="#1a5276"/>
      <text x="200" y="305" text-anchor="middle">D2</text>
      <rect x="185" y="310" width="30" height="14" rx="2" fill="#1a5276"/>
      <text x="200" y="321" text-anchor="middle">TX1</text>
      <rect x="185" y="326" width="30" height="14" rx="2" fill="#1a5276"/>
      <text x="200" y="337" text-anchor="middle">RX0</text>
    </g>

    <!-- Power pins (left side, top) -->
    <text x="10" y="108" font-size="9" fill="#d5f4e6">POWER</text>
    <g font-size="10" fill="white">
      <rect x="-5" y="114" width="30" height="14" rx="2" fill="#c0392b"/>
      <text x="10" y="125" text-anchor="middle">5V</text>
      <rect x="-5" y="130" width="30" height="14" rx="2" fill="#c0392b"/>
      <text x="10" y="141" text-anchor="middle">3.3V</text>
      <rect x="-5" y="146" width="30" height="14" rx="2" fill="#2c3e50"/>
      <text x="10" y="157" text-anchor="middle">GND</text>
      <rect x="-5" y="162" width="30" height="14" rx="2" fill="#2c3e50"/>
      <text x="10" y="173" text-anchor="middle">GND</text>
      <rect x="-5" y="178" width="30" height="14" rx="2" fill="#1a5276"/>
      <text x="10" y="189" text-anchor="middle">VIN</text>
    </g>

    <!-- Analog pins (left side) -->
    <text x="10" y="210" font-size="9" fill="#d5f4e6">ANALOG</text>
    <g font-size="10" fill="white">
      <rect x="-5" y="216" width="30" height="14" rx="2" fill="#e67e22" stroke="#d35400" stroke-width="1"/>
      <text x="10" y="227" text-anchor="middle" font-weight="bold">A0</text>
      <rect x="-5" y="232" width="30" height="14" rx="2" fill="#1a5276"/>
      <text x="10" y="243" text-anchor="middle">A1</text>
      <rect x="-5" y="248" width="30" height="14" rx="2" fill="#1a5276"/>
      <text x="10" y="259" text-anchor="middle">A2</text>
      <rect x="-5" y="264" width="30" height="14" rx="2" fill="#1a5276"/>
      <text x="10" y="275" text-anchor="middle">A3</text>
      <rect x="-5" y="280" width="30" height="14" rx="2" fill="#27ae60" stroke="#1e8449" stroke-width="1"/>
      <text x="10" y="291" text-anchor="middle" font-weight="bold">A4</text>
      <rect x="-5" y="296" width="30" height="14" rx="2" fill="#27ae60" stroke="#1e8449" stroke-width="1"/>
      <text x="10" y="307" text-anchor="middle" font-weight="bold">A5</text>
    </g>

    <!-- I2C labels -->
    <text x="10" y="322" font-size="8" fill="#2ecc71" font-weight="bold">SDA</text>
    <text x="10" y="334" font-size="8" fill="#2ecc71" font-weight="bold">SCL</text>

    <!-- 14-bit ADC note -->
    <text x="38" y="227" font-size="8" fill="#fdebd0" font-weight="bold">14-bit ADC</text>
  </g>

  <!-- ==================== ADAFRUIT MOTOR SHIELD ==================== -->
  <g transform="translate(630, 75)">
    <!-- Shield body -->
    <rect x="0" y="0" width="280" height="240" rx="6" fill="#27ae60" stroke="#1e8449" stroke-width="2"/>
    <text x="140" y="25" text-anchor="middle" font-size="13" font-weight="bold" fill="white">ADAFRUIT MOTOR SHIELD v2</text>
    <text x="140" y="42" text-anchor="middle" font-size="10" fill="#d5f4e6">(Stacks on Arduino via headers)</text>

    <!-- I2C connection note -->
    <rect x="15" y="52" width="250" height="22" rx="3" fill="#1e8449"/>
    <text x="140" y="67" text-anchor="middle" font-size="10" fill="white">I2C Bus: SDA (A4) + SCL (A5)</text>

    <!-- Motor Terminal M1 -->
    <rect x="15" y="85" width="120" height="65" rx="4" fill="#1e8449" stroke="#145a32" stroke-width="1.5"/>
    <text x="75" y="102" text-anchor="middle" font-size="11" font-weight="bold" fill="white">M1 Terminal</text>
    <text x="75" y="118" text-anchor="middle" font-size="10" fill="#d5f4e6">MOUTH MOTOR</text>
    <text x="75" y="133" text-anchor="middle" font-size="9" fill="#a9dfbf">DC Motor Port 1</text>
    <text x="75" y="145" text-anchor="middle" font-size="8" fill="#a9dfbf">Speed: 0-254</text>

    <!-- Motor Terminal M2 -->
    <rect x="145" y="85" width="120" height="65" rx="4" fill="#1e8449" stroke="#145a32" stroke-width="1.5"/>
    <text x="205" y="102" text-anchor="middle" font-size="11" font-weight="bold" fill="white">M2 Terminal</text>
    <text x="205" y="118" text-anchor="middle" font-size="10" fill="#d5f4e6">HEAD MOTOR</text>
    <text x="205" y="133" text-anchor="middle" font-size="9" fill="#a9dfbf">DC Motor Port 2</text>
    <text x="205" y="145" text-anchor="middle" font-size="8" fill="#a9dfbf">Speed: 254</text>

    <!-- Motor Terminal M3 (unused) -->
    <rect x="15" y="158" width="120" height="30" rx="4" fill="#555" stroke="#444" stroke-width="1" opacity="0.4"/>
    <text x="75" y="177" text-anchor="middle" font-size="10" fill="#999">M3 (unused)</text>

    <!-- Motor Terminal M4 (unused) -->
    <rect x="145" y="158" width="120" height="30" rx="4" fill="#555" stroke="#444" stroke-width="1" opacity="0.4"/>
    <text x="205" y="177" text-anchor="middle" font-size="10" fill="#999">M4 (unused)</text>

    <!-- External Power -->
    <rect x="15" y="198" width="250" height="30" rx="4" fill="#c0392b" stroke="#922b21" stroke-width="1.5"/>
    <text x="140" y="217" text-anchor="middle" font-size="11" font-weight="bold" fill="white">EXT POWER: 5-12V DC (for motors)</text>
  </g>

  <!-- ==================== MOUTH MOTOR ==================== -->
  <g transform="translate(660, 370)">
    <rect x="0" y="0" width="140" height="70" rx="6" fill="#8e44ad" stroke="#6c3483" stroke-width="2"/>
    <text x="70" y="20" text-anchor="middle" font-size="12" font-weight="bold" fill="white">DC MOTOR</text>
    <text x="70" y="36" text-anchor="middle" font-size="11" fill="#d7bde2">MOUTH</text>
    <text x="70" y="52" text-anchor="middle" font-size="9" fill="#d7bde2">2 wires to M1</text>
    <text x="70" y="64" text-anchor="middle" font-size="9" fill="#d7bde2">terminal on shield</text>
  </g>

  <!-- ==================== HEAD MOTOR ==================== -->
  <g transform="translate(660, 460)">
    <rect x="0" y="0" width="140" height="70" rx="6" fill="#8e44ad" stroke="#6c3483" stroke-width="2"/>
    <text x="70" y="20" text-anchor="middle" font-size="12" font-weight="bold" fill="white">DC MOTOR</text>
    <text x="70" y="36" text-anchor="middle" font-size="11" fill="#d7bde2">HEAD</text>
    <text x="70" y="52" text-anchor="middle" font-size="9" fill="#d7bde2">2 wires to M2</text>
    <text x="70" y="64" text-anchor="middle" font-size="9" fill="#d7bde2">terminal on shield</text>
  </g>

  <!-- ==================== EXTERNAL POWER ==================== -->
  <g transform="translate(660, 550)">
    <rect x="0" y="0" width="140" height="55" rx="6" fill="#c0392b" stroke="#922b21" stroke-width="2"/>
    <text x="70" y="20" text-anchor="middle" font-size="12" font-weight="bold" fill="white">POWER SUPPLY</text>
    <text x="70" y="36" text-anchor="middle" font-size="10" fill="#f5b7b1">5-12V DC</text>
    <text x="70" y="49" text-anchor="middle" font-size="9" fill="#f5b7b1">for motor shield</text>
  </g>

  <!-- ==================== WIRING CONNECTIONS ==================== -->

  <!-- BT Adapter -> Y-Splitter (3.5mm cable) -->
  <line x1="118" y1="185" x2="118" y2="225" stroke="#16a085" stroke-width="2.5" stroke-dasharray="6,3" marker-end="url(#arrow-teal)"/>
  <rect x="130" y="195" width="65" height="16" rx="3" fill="#16a085" opacity="0.9"/>
  <text x="162" y="207" text-anchor="middle" font-size="8" fill="white" font-weight="bold">3.5mm cable</text>

  <!-- Y-Splitter -> Billy Bass Speaker/Amp -->
  <line x1="105" y1="265" x2="105" y2="310" stroke="#8e44ad" stroke-width="2.5" stroke-dasharray="6,3" marker-end="url(#arrow-purple)"/>
  <rect x="120" y="276" width="85" height="16" rx="3" fill="#8e44ad" opacity="0.9"/>
  <text x="162" y="288" text-anchor="middle" font-size="8" fill="white" font-weight="bold">Audio output</text>

  <!-- Y-Splitter -> Conditioning Circuit -->
  <path d="M 135 265 L 135 400 L 145 435" fill="none" stroke="#e67e22" stroke-width="2.5" stroke-dasharray="6,3" marker-end="url(#arrow-orange)"/>
  <rect x="148" y="393" width="85" height="16" rx="3" fill="#e67e22" opacity="0.9"/>
  <text x="190" y="405" text-anchor="middle" font-size="8" fill="white" font-weight="bold">Audio to ADC</text>

  <!-- Conditioning Circuit R3 output -> Arduino A0 -->
  <line x1="275" y1="625" x2="310" y2="625" stroke="#e67e22" stroke-width="1" stroke-dasharray="2,2"/>
  <path d="M 275 620 C 300 580, 310 440, 335 363" fill="none" stroke="#e67e22" stroke-width="2.5" marker-end="url(#arrow-orange)"/>
  <rect x="282" y="465" width="58" height="32" rx="3" fill="#e67e22" opacity="0.9"/>
  <text x="311" y="478" text-anchor="middle" font-size="9" fill="white" font-weight="bold">R3 out</text>
  <text x="311" y="492" text-anchor="middle" font-size="9" fill="white" font-weight="bold">--> A0</text>

  <!-- Conditioning Circuit R1 <- Arduino 5V -->
  <path d="M 275 515 C 300 515, 320 350, 335 261" fill="none" stroke="#c0392b" stroke-width="1.5" stroke-dasharray="4,3" marker-start="url(#arrow-red)"/>
  <rect x="290" y="365" width="48" height="16" rx="3" fill="#c0392b" opacity="0.8"/>
  <text x="314" y="377" text-anchor="middle" font-size="8" fill="white" font-weight="bold">5V</text>

  <!-- Conditioning Circuit R2, C2 <- Arduino GND -->
  <path d="M 275 540 C 310 540, 325 380, 335 300" fill="none" stroke="#2c3e50" stroke-width="1.5" stroke-dasharray="4,3" marker-start="url(#arrow)"/>
  <rect x="295" y="415" width="48" height="16" rx="3" fill="#2c3e50" opacity="0.8"/>
  <text x="319" y="427" text-anchor="middle" font-size="8" fill="white" font-weight="bold">GND</text>

  <!-- 3.5mm Sleeve GND note -->
  <rect x="15" y="393" width="180" height="16" rx="3" fill="#2c3e50" opacity="0.8"/>
  <text x="105" y="405" text-anchor="middle" font-size="8" fill="white" font-weight="bold">3.5mm SLEEVE --> Arduino GND</text>

  <!-- Arduino A4/A5 (I2C) -> Motor Shield -->
  <path d="M 335 427 C 280 427, 280 200, 630 200" fill="none" stroke="#27ae60" stroke-width="2.5" stroke-dasharray="6,3" marker-end="url(#arrow-green)"/>
  <rect x="280" y="300" width="95" height="32" rx="3" fill="#27ae60" opacity="0.9"/>
  <text x="327" y="313" text-anchor="middle" font-size="9" fill="white" font-weight="bold">I2C Connection</text>
  <text x="327" y="327" text-anchor="middle" font-size="8" fill="white">A4(SDA) + A5(SCL)</text>

  <!-- Motor Shield M1 -> Mouth Motor -->
  <line x1="705" y1="315" x2="715" y2="370" stroke="#8e44ad" stroke-width="2.5" marker-end="url(#arrow)"/>

  <!-- Motor Shield M2 -> Head Motor -->
  <line x1="835" y1="315" x2="760" y2="460" stroke="#8e44ad" stroke-width="2.5" marker-end="url(#arrow)"/>

  <!-- External Power -> Motor Shield -->
  <line x1="730" y1="550" x2="730" y2="315" stroke="#c0392b" stroke-width="2.5" stroke-dasharray="4,4" marker-end="url(#arrow-red)"/>

  <!-- ==================== SIGNAL FLOW SUMMARY ==================== -->
  <g transform="translate(630, 625)">
    <rect x="0" y="0" width="280" height="100" rx="6" fill="white" stroke="#bdc3c7" stroke-width="1.5"/>
    <text x="140" y="20" text-anchor="middle" font-size="11" font-weight="bold" fill="#2c3e50">SIGNAL FLOW</text>
    <text x="15" y="40" font-size="9" fill="#16a085" font-weight="bold">Phone/Speaker</text>
    <text x="105" y="40" font-size="9" fill="#666">--BT A2DP--></text>
    <text x="185" y="40" font-size="9" fill="#16a085" font-weight="bold">BT Adapter</text>
    <text x="15" y="56" font-size="9" fill="#16a085" font-weight="bold">BT Adapter</text>
    <text x="105" y="56" font-size="9" fill="#666">--3.5mm--></text>
    <text x="185" y="56" font-size="9" fill="#f39c12" font-weight="bold">Y-Splitter</text>
    <text x="15" y="72" font-size="9" fill="#f39c12" font-weight="bold">Splitter</text>
    <text x="75" y="72" font-size="9" fill="#666">--></text>
    <text x="95" y="72" font-size="9" fill="#8e44ad" font-weight="bold">Speaker</text>
    <text x="145" y="72" font-size="9" fill="#666">+</text>
    <text x="160" y="72" font-size="9" fill="#e67e22" font-weight="bold">Cond.Ckt --> A0</text>
    <text x="15" y="88" font-size="9" fill="#2980b9" font-weight="bold">Arduino FFT</text>
    <text x="105" y="88" font-size="9" fill="#666">--I2C--></text>
    <text x="165" y="88" font-size="9" fill="#27ae60" font-weight="bold">Shield</text>
    <text x="205" y="88" font-size="9" fill="#666">--></text>
    <text x="225" y="88" font-size="9" fill="#8e44ad" font-weight="bold">Motors</text>
  </g>

  <!-- ==================== LEGEND ==================== -->
  <g transform="translate(30, 680)">
    <rect x="0" y="0" width="275" height="185" rx="6" fill="white" stroke="#bdc3c7" stroke-width="1.5"/>
    <text x="137" y="22" text-anchor="middle" font-size="13" font-weight="bold" fill="#2c3e50">CONNECTION LEGEND</text>

    <line x1="15" y1="38" x2="55" y2="38" stroke="#16a085" stroke-width="2.5" stroke-dasharray="6,3"/>
    <text x="65" y="42" font-size="10" fill="#2c3e50">BT Adapter audio (3.5mm)</text>

    <line x1="15" y1="58" x2="55" y2="58" stroke="#e67e22" stroke-width="2.5" stroke-dasharray="6,3"/>
    <text x="65" y="62" font-size="10" fill="#2c3e50">Audio signal to ADC (A0)</text>

    <line x1="15" y1="78" x2="55" y2="78" stroke="#8e44ad" stroke-width="2.5" stroke-dasharray="6,3"/>
    <text x="65" y="82" font-size="10" fill="#2c3e50">Audio to speaker (existing)</text>

    <line x1="15" y1="98" x2="55" y2="98" stroke="#c0392b" stroke-width="2"/>
    <text x="65" y="102" font-size="10" fill="#2c3e50">Power (5V / GND)</text>

    <line x1="15" y1="118" x2="55" y2="118" stroke="#27ae60" stroke-width="2.5" stroke-dasharray="6,3"/>
    <text x="65" y="122" font-size="10" fill="#2c3e50">I2C Bus (SDA/SCL)</text>

    <line x1="15" y1="138" x2="55" y2="138" stroke="#8e44ad" stroke-width="2.5"/>
    <text x="65" y="142" font-size="10" fill="#2c3e50">Motor connections (M1, M2)</text>

    <line x1="15" y1="158" x2="55" y2="158" stroke="#c0392b" stroke-width="2.5" stroke-dasharray="4,4"/>
    <text x="65" y="162" font-size="10" fill="#2c3e50">External motor power</text>

    <text x="15" y="180" font-size="9" fill="#7f8c8d">Motor Shield stacks on Arduino via headers</text>
  </g>

  <!-- ==================== PIN SUMMARY TABLE ==================== -->
  <g transform="translate(340, 680)">
    <rect x="0" y="0" width="265" height="185" rx="6" fill="white" stroke="#bdc3c7" stroke-width="1.5"/>
    <text x="132" y="22" text-anchor="middle" font-size="13" font-weight="bold" fill="#2c3e50">PIN SUMMARY</text>

    <text x="15" y="42" font-size="10" fill="#2c3e50" font-weight="bold">Pin</text>
    <text x="55" y="42" font-size="10" fill="#2c3e50" font-weight="bold">Function</text>
    <text x="145" y="42" font-size="10" fill="#2c3e50" font-weight="bold">Connected To</text>
    <line x1="10" y1="48" x2="255" y2="48" stroke="#bdc3c7" stroke-width="1"/>

    <text x="15" y="63" font-size="10" fill="#e67e22" font-weight="bold">A0</text>
    <text x="55" y="63" font-size="10" fill="#2c3e50">14-bit ADC</text>
    <text x="145" y="63" font-size="10" fill="#2c3e50">Conditioning Ckt</text>

    <text x="15" y="80" font-size="10" fill="#27ae60" font-weight="bold">A4</text>
    <text x="55" y="80" font-size="10" fill="#2c3e50">SDA (I2C)</text>
    <text x="145" y="80" font-size="10" fill="#2c3e50">Motor Shield</text>

    <text x="15" y="97" font-size="10" fill="#27ae60" font-weight="bold">A5</text>
    <text x="55" y="97" font-size="10" fill="#2c3e50">SCL (I2C)</text>
    <text x="145" y="97" font-size="10" fill="#2c3e50">Motor Shield</text>

    <text x="15" y="114" font-size="10" fill="#c0392b" font-weight="bold">5V</text>
    <text x="55" y="114" font-size="10" fill="#2c3e50">Power Out</text>
    <text x="145" y="114" font-size="10" fill="#2c3e50">Cond. Ckt R1, D1</text>

    <text x="15" y="131" font-size="10" fill="#2c3e50" font-weight="bold">GND</text>
    <text x="55" y="131" font-size="10" fill="#2c3e50">Ground</text>
    <text x="145" y="131" font-size="10" fill="#2c3e50">Cond. Ckt R2,D2,C2</text>

    <line x1="10" y1="140" x2="255" y2="140" stroke="#bdc3c7" stroke-width="1"/>
    <text x="15" y="157" font-size="9" fill="#7f8c8d">3.5mm sleeve also connects</text>
    <text x="15" y="170" font-size="9" fill="#7f8c8d">to GND (shared ground ref)</text>
    <text x="15" y="183" font-size="9" fill="#7f8c8d">ADC ref: 5V (default)</text>
  </g>
</svg>
